<?xml version="1.0" standalone="no"?>
<!DOCTYPE svg PUBLIC "-//W3C//DTD SVG 20010904//EN"
 "http://www.w3.org/TR/2001/REC-SVG-20010904/DTD/svg10.dtd">
<svg version="1.0" xmlns="http://www.w3.org/2000/svg"
 width="401.000000pt" height="386.000000pt" viewBox="0 0 401.000000 386.000000"
 preserveAspectRatio="xMidYMid meet">

<g transform="translate(0.000000,386.000000) scale(0.100000,-0.100000)"
fill="#000000" stroke="none">
<path d="M345 3640 l130 -130 463 0 463 0 24 25 c23 23 25 31 25 130 l0 105
-617 0 -618 0 130 -130z"/>
<path d="M2540 3665 c0 -99 2 -107 25 -130 l24 -25 463 0 463 0 130 130 130
130 -618 0 -617 0 0 -105z"/>
<path d="M150 3092 l0 -622 110 0 c104 0 112 1 135 25 l25 24 0 463 0 463
-135 135 -135 135 0 -623z"/>
<path d="M3708 3573 l-128 -128 0 -457 c-1 -305 3 -465 10 -478 18 -33 44 -40
149 -40 l101 0 0 615 c0 338 -1 615 -3 615 -1 0 -60 -57 -129 -127z"/>
<path d="M150 763 l0 -618 130 130 130 130 0 463 0 463 -25 24 c-23 23 -31 25
-130 25 l-105 0 0 -617z"/>
<path d="M3605 1355 l-25 -24 -1 -433 c0 -238 -2 -444 -4 -458 -2 -20 22 -50
131 -160 l134 -135 0 618 0 617 -105 0 c-99 0 -107 -2 -130 -25z"/>
<path d="M345 210 l-130 -130 618 0 617 0 0 105 c0 99 -2 107 -25 130 l-24 25
-463 0 -463 0 -130 -130z"/>
<path d="M2565 315 c-23 -23 -25 -31 -25 -130 l0 -105 617 0 618 0 -130 130
-130 130 -463 0 -463 0 -24 -25z"/>
</g>
</svg>
